<svg id="Layer_2" data-name="Layer 2" xmlns="http://www.w3.org/2000/svg" xmlns:xlink="http://www.w3.org/1999/xlink" viewBox="0 0 400 300" width="406" height="306" class="illustration styles_illustrationTablet__1DWOa"><defs><linearGradient id="linear-gradient" x1="243.96" y1="223.42" x2="269.08" y2="202.13" gradientTransform="matrix(-1, 0, 0, 1, 414.32, 0)" gradientUnits="userSpaceOnUse"><stop offset="0" stop-color="#fff" stop-opacity="0"></stop><stop offset="1" stop-color="#ed1c24"></stop></linearGradient><linearGradient id="linear-gradient-2" x1="124.53" y1="218.88" x2="149.65" y2="197.59" xlink:href="#linear-gradient"></linearGradient><linearGradient id="linear-gradient-3" x1="176.11" y1="248.86" x2="201.23" y2="227.57" xlink:href="#linear-gradient"></linearGradient></defs><title>PP</title><path d="M194.28,287,14.56,180.76c-5.72-3.21-10.63-8.49-5.05-11.94l180.37-104c2.71-1.68,6.82-2.78,9.57-1.18L388.11,173.18c5.72,3.32,6.75,12.6,1,15.93L218,286.81A23.9,23.9,0,0,1,194.28,287Z" fill="#ffbe30"></path><path d="M172.6,227.05c-3.8,1.16-7.6,2.31-11.5,3.09a58.88,58.88,0,0,1-7.2.83l-4-2.74-26.7-19.37,23.66-12.53,47.12,21.62C187.67,222.53,179.94,224.8,172.6,227.05Z" opacity="0.32" fill="url(#linear-gradient)"></path><polygon points="91.15 83.19 91.15 179.32 207.94 110.55 207.94 13.2 91.15 83.19" fill="#68e1fd"></polygon><path d="M292,222.51c-3.8,1.16-7.6,2.31-11.5,3.09a58.88,58.88,0,0,1-7.2.83l-4-2.74-26.7-19.37,23.66-12.53,47.12,21.62C307.1,218,299.36,220.26,292,222.51Z" opacity="0.32" fill="url(#linear-gradient-2)"></path><path d="M265.08,180.73a12.16,12.16,0,0,1,9.72-2.26c3.82.84,7.13,3.24,11,3.83.62.09,3.07-.07,3.45.29,10.83,10.25-19.44,9.15-19.44,9.15-2.94-2.41-5.7-4.77-8.62-7.21C262.08,182.57,263.57,181.79,265.08,180.73Z" fill="#f8997c"></path><path d="M279.33,195.59l1.08,30.92c0,1.17-1.78,1.17-1.82,0l-1.08-30.92C277.46,194.42,279.29,194.42,279.33,195.59Z" fill="#844040"></path><path d="M256.63,212.14q8.27-8.09,15.8-16.89c.76-.89,2,.4,1.29,1.29q-7.52,8.79-15.8,16.89C257.08,214.25,255.79,213,256.63,212.14Z" fill="#844040"></path><path d="M285.65,192.73q6.42,12.12,12.09,24.61c.48,1.06-1.09,2-1.57.92q-5.67-12.49-12.09-24.61C283.52,192.61,285.1,191.69,285.65,192.73Z" fill="#844040"></path><path d="M261.71,183.62a14.66,14.66,0,0,0,7.33,5.3c4.14,1.24,10.16.66,12.33-3.61,4-7.75.24-17.46,4.42-25a7.65,7.65,0,0,1,4.85-3.92c2.71-.58,4.57,1.42,5.55,3.78,1.76,4.23,1.7,9.5,1.61,14a75.35,75.35,0,0,1-.8,10.88s-2.53,15.12-22.27,11.06a30,30,0,0,1-9.7-3.54,13.31,13.31,0,0,1-4-3.43C259.87,187.42,260.67,185.36,261.71,183.62Z" fill="#68e1fd"></path><polyline points="279.15 140.61 279.69 144.09 285.26 144.09 286.13 140.16" fill="#f7931e"></polyline><path d="M248,198.13s.16,2.76-.69,3.53-5.46-1.37-6.68-.61,4.62,6.29,6.68,6.59,4-2.63,4-2.63v4.16l2.33,1.33,1.72-1-.51-11.35Z" fill="#ff9f9f"></path><path d="M255.94,200.16c-2.45,2.11-5.09,2-8.14.74-2.19-3.85-4.77-27.31.71-31.06,5.88-4,15.07-3.31,16.61-2.87l22.52,3.69c1.73,2.94-2.85,18.34-12.85,18.77s-16.39-3.33-16.39-3.33Z" fill="#124577"></path><path d="M264.69,135.8a5.34,5.34,0,0,1,2.52,2.31l0,.08c1.59,1.3,1.83,3.66,3.51,4.83,0,0,1.58,1.16,1.6,1.2s-.15-2.17-.15-2.15v0c.55,1.5,1.08,3,1.55,4.52a.94.94,0,0,1-.24.11l.18.09.15.09a.51.51,0,0,0,.3.34,1.2,1.2,0,0,1-1.67,1.41l-5.09-2.49a14.2,14.2,0,0,1-2-.58c0-.53-.08-1.06-.13-1.59a4.47,4.47,0,0,1-.34-4.22l-.09-.09,0-.06a3.88,3.88,0,0,1-1.6-2.53C263.15,136.34,263.88,135.42,264.69,135.8Z" fill="#f7931e"></path><path d="M271.17,140.61s-5.81,3.6-6.41,6.61c0,0,4.08,8.86,3.8,9.21-4.61,6,9.21-3.8,9.21-3.8S275,144.22,271.17,140.61Z" fill="#68e1fd"></path><path d="M271.17,140.61s-5.81,3.6-6.41,6.61c0,0,4.08,8.86,3.8,9.21-4.61,6,9.21-3.8,9.21-3.8S275,144.22,271.17,140.61Z" fill="#ff9f9f"></path><path d="M289.11,146.47c-2.22-5.54-6.43-3.74-7.27-3.74-8.27,0-11.74,4.93-13.94,8.17a.46.46,0,0,1,0,.09A50.22,50.22,0,0,0,266,162.5c-.14,1.86-.17,3.76-.43,5.61-.21,1.44-.89,3.21,0,4.57.45.71,1.62.9,2.35,1.19a24.47,24.47,0,0,0,4.59,1.31,19.45,19.45,0,0,0,7.5-.08c2.59-.56,6.29-1.9,7.64-4.43C289.11,167.89,291.33,152,289.11,146.47Z" fill="#ff9f9f"></path><path d="M274.64,130.22c0,.14-.86,8.83,1.08,10.74s7.11,1.12,8.39-1,2.85-4.85,1.48-8.09S274.87,128.08,274.64,130.22Z" fill="#f7931e"></path><path d="M280.11,133.36c1.49,1.94-.41,4.6,0,6.71.85,4.83,6.88,2.63,8.92.22a14.94,14.94,0,0,0,1.83-2.77,5.79,5.79,0,0,0,.54-3.9,13.65,13.65,0,0,0-.66-2.22c-1.93-4.71-7.71-6.85-12.42-5.57a4.81,4.81,0,0,0-3.88,5.32C276.14,131.81,278.88,131.76,280.11,133.36Z" fill="#124577"></path><path d="M278.84,136.92A.87.87,0,0,1,279,136a4.2,4.2,0,0,1,2.35-1.46,1.76,1.76,0,0,1,2.06,1.11c.6,2-2.6,2.55-3.91,2.72a.87.87,0,0,1-.87-.87A.78.78,0,0,1,278.84,136.92Z" fill="#f7931e"></path><circle cx="292.13" cy="128.86" r="3.94" fill="#124577"></circle><path d="M274.56,158.38s-1.43,15.15-2.69,16-7.11-1.05-7.11-1.05S271.72,169.12,274.56,158.38Z" fill="#dd6c6c"></path><path d="M255.83,166.62s-2.67-.9-3.87,0-3.45,3.12-3,4,2.25,0,2.25,0a5.11,5.11,0,0,1,1.85,0c.4.22,3.53,1.66,4.5,1S258.18,167.48,255.83,166.62Z" fill="#f7931e"></path><path d="M267,154.71s-2.16,6.51-4.19,7.48a35,35,0,0,1-6.22,1.49,21.69,21.69,0,0,0-1,8.3c5.24,1.3,11.57,1.64,13.79-.21,3.22-2.67,5.47-14.88,5.47-14.88Z" fill="#ff9f9f"></path><path d="M260.83,185.39a1.24,1.24,0,0,1,2.07-.37,14,14,0,0,0,6.13,3.9c4.14,1.24,10.16.66,12.33-3.61,3.94-7.73.27-17.39,4.37-24.92a8.3,8.3,0,0,1,3.08-3.28c3.7-2.14,6.17.2,7.36,3.05,1.76,4.23,1.7,9.5,1.61,14a75.35,75.35,0,0,1-.8,10.88s-2.53,15.12-22.27,11.06a30,30,0,0,1-9.7-3.54,13.31,13.31,0,0,1-4-3.43A3.88,3.88,0,0,1,260.83,185.39Z" fill="#68e1fd"></path><path d="M240.44,252.49c-3.8,1.16-7.6,2.31-11.5,3.09a58.88,58.88,0,0,1-7.2.83l-4-2.74L191,234.3l23.66-12.53,47.12,21.62C255.52,248,247.78,250.25,240.44,252.49Z" opacity="0.32" fill="url(#linear-gradient-3)"></path><path d="M213.49,210.72a12.16,12.16,0,0,1,9.72-2.26c3.82.84,7.13,3.24,11,3.83.62.09,3.07-.07,3.45.29,10.83,10.25-19.44,9.15-19.44,9.15-2.94-2.41-5.7-4.77-8.62-7.21C210.5,212.55,212,211.77,213.49,210.72Z" fill="#f8997c"></path><path d="M227.74,225.57l1.08,30.92c0,1.17-1.78,1.17-1.82,0l-1.08-30.92C225.88,224.4,227.7,224.4,227.74,225.57Z" fill="#844040"></path><path d="M205,242.12q8.27-8.09,15.8-16.89c.76-.89,2,.4,1.29,1.29q-7.52,8.79-15.8,16.89C205.49,244.23,204.2,242.94,205,242.12Z" fill="#844040"></path><path d="M234.06,222.71q6.42,12.12,12.09,24.61c.48,1.06-1.09,2-1.57.92q-5.67-12.49-12.09-24.61C231.94,222.6,233.51,221.67,234.06,222.71Z" fill="#844040"></path><path d="M210.12,213.6a14.66,14.66,0,0,0,7.33,5.3c4.14,1.24,10.16.66,12.33-3.61,4-7.75.24-17.46,4.42-25a7.65,7.65,0,0,1,4.85-3.92c2.71-.58,4.57,1.42,5.55,3.78,1.76,4.23,1.7,9.5,1.61,14a75.35,75.35,0,0,1-.8,10.88s-2.53,15.12-22.27,11.06a30,30,0,0,1-9.7-3.54,13.31,13.31,0,0,1-4-3.43C208.28,217.4,209.08,215.35,210.12,213.6Z" fill="#68e1fd"></path><path d="M196.46,228.11s.16,2.76-.69,3.53-5.46-1.37-6.68-.61,4.62,6.29,6.68,6.59,4-2.63,4-2.63v4.16l2.33,1.33,1.72-1-.51-11.35Z" fill="#8787d1"></path><path d="M204.35,230.14c-2.45,2.11-5.09,2-8.14.74-2.19-3.85-4.77-27.31.71-31.06,5.88-4,15.07-3.31,16.61-2.87l22.52,3.69c1.73,2.94-2.85,18.34-12.85,18.77s-16.39-3.33-16.39-3.33Z" fill="#124577"></path><path d="M213.11,165.78a5.34,5.34,0,0,1,2.52,2.31l0,.08c1.59,1.3,1.83,3.66,3.51,4.83,0,0,1.58,1.16,1.6,1.2s-.15-2.17-.15-2.15v0c.55,1.5,1.08,3,1.55,4.52a.94.94,0,0,1-.24.11l.18.09.15.09a.51.51,0,0,0,.3.34,1.2,1.2,0,0,1-1.67,1.41l-5.09-2.49a14.2,14.2,0,0,1-2-.58c0-.53-.08-1.06-.13-1.59a4.47,4.47,0,0,1-.34-4.22l-.09-.09,0-.06a3.88,3.88,0,0,1-1.6-2.53C211.57,166.33,212.3,165.4,213.11,165.78Z" fill="#f7931e"></path><path d="M219.58,170.59s-5.81,3.6-6.41,6.61c0,0,4.08,8.86,3.8,9.21-4.61,6,9.21-3.8,9.21-3.8S223.39,174.2,219.58,170.59Z" fill="#68e1fd"></path><path d="M206.37,172.8c-.48,4,4.64,9.6,6.79,10.67,3,1.48,4.11-10.81,17.1-10.76.84,0,5.05-1.79,7.27,3.74s0,21.42-1.48,24.18c-1.3,2.44-10,8.31-22.34,2l-.18-5.72s-7.3-.16-11.17-5.53c-3.6-5-5.75-12.53-5.41-16.22C199.88,173.93,203.5,171.85,206.37,172.8Z" fill="#68e1fd"></path><path d="M219.58,170.59s-5.81,3.6-6.41,6.61c0,0,4.08,8.86,3.8,9.21-4.61,6,9.21-3.8,9.21-3.8S223.39,174.2,219.58,170.59Z" fill="#8787d1"></path><path d="M197.14,171.92a.46.46,0,0,0,.14.1q-.06,1.82-.1,3.65c0,.61.94.53.95-.08v-.16a.53.53,0,0,0,.63-.36l0-.12a.44.44,0,0,0,.46-.06.52.52,0,0,0,.34-.19.55.55,0,0,0,.41.21l0,.43c0,.53.88.59.94.05l0-.38c.14.4.88.4.92-.08l0-.53a.46.46,0,0,0,.16-.08v.09a.48.48,0,0,0,.94.05l.06-.24a.45.45,0,0,0,.62-.2,20.4,20.4,0,0,0,1.52-3.95,2.37,2.37,0,0,0-.84-2.67.43.43,0,0,0-.31-.12v0c.06-.65.13-1.31.21-2a11.08,11.08,0,0,0,.2-1.39,1.5,1.5,0,0,0-.06-1c-.11-.47-.37-.88-.92-.78-.85.16-1.19,1.42-1.4,2.11a19.53,19.53,0,0,0-.55,2.09,1.22,1.22,0,0,0-.38-.28,1.3,1.3,0,0,0-1.41.38l-.07.09a1.43,1.43,0,0,0-.36-.29,1.24,1.24,0,0,0-1.4.06,1.39,1.39,0,0,0-.5.78,1.23,1.23,0,0,0-1.65.88C195.38,169.29,196.23,170.92,197.14,171.92Zm3.9-4.85h-.28a.54.54,0,0,0-.06-.12.31.31,0,0,1,.26,0Z" fill="#f7931e"></path><path d="M223.39,158.08c0,.13-.8,8.26,1,10s6.65,1.05,7.85-.9,2.67-4.53,1.39-7.56S223.6,156.08,223.39,158.08Z" fill="#f7931e"></path><path d="M226,163.36a.81.81,0,0,1,.14-.86,3.93,3.93,0,0,1,2.19-1.36,1.64,1.64,0,0,1,1.92,1c.56,1.84-2.43,2.38-3.66,2.54a.82.82,0,0,1-.81-.81A.73.73,0,0,1,226,163.36Z" fill="#ffe8e6"></path><path d="M206.37,172.8c-.48,4,4.64,9.6,6.79,10.67,3,1.48,4.11-10.81,17.1-10.76.84,0,5.05-1.79,7.27,3.74s0,21.42-1.48,24.18c-1.3,2.44-10,8.31-22.34,2l-.18-5.72s-7.3-.16-11.17-5.53c-3.6-5-5.75-12.53-5.41-16.22C199.88,173.93,203.5,171.85,206.37,172.8Z" fill="#8787d1"></path><path d="M207.39,195.54a16,16,0,0,0,18.75-6.23c.26-.4.9,0,.64.37a16.74,16.74,0,0,1-19.58,6.56C206.75,196.1,206.94,195.38,207.39,195.54Z" fill="#fff"></path><path d="M214.69,182.1a11.9,11.9,0,0,1,2.88-4.07c1.41-1.29,3.17-2.11,4.64-3.32.3-.24.72.18.42.42-1.4,1.14-3,1.93-4.41,3.11a11.46,11.46,0,0,0-3,4.16C215.05,182.75,214.53,182.45,214.69,182.1Z" fill="#fff"></path><path d="M223.2,159.22l2.59,1.36s-2,7.61-2.6,9.61,1.8,4.81,9.61,5,7.41-11.61,5.61-16-7.21-6.41-11.61-5.21A4.54,4.54,0,0,0,223.2,159.22Z" fill="#ffae2c"></path><path d="M209.25,215.38a1.24,1.24,0,0,1,2.07-.37,14,14,0,0,0,6.13,3.9c4.14,1.24,10.16.66,12.33-3.61,3.94-7.73.27-17.39,4.37-24.92a8.3,8.3,0,0,1,3.08-3.28c3.7-2.14,6.17.2,7.36,3.05,1.76,4.23,1.7,9.5,1.61,14a75.35,75.35,0,0,1-.8,10.88s-2.53,15.12-22.27,11.06a30,30,0,0,1-9.7-3.54,13.31,13.31,0,0,1-4-3.43A3.88,3.88,0,0,1,209.25,215.38Z" fill="#68e1fd"></path><path d="M148.71,69.51,175.24,54a1.13,1.13,0,0,0-1.14-1.94L147.57,67.57a1.13,1.13,0,0,0,1.14,1.94Z" fill="#ffbe30"></path><path d="M148.65,75.06l26.53-15.47A1.13,1.13,0,0,0,174,57.65L147.51,73.12a1.13,1.13,0,0,0,1.14,1.94Z" fill="#053855"></path><path d="M148.65,80.61l26.53-15.47A1.13,1.13,0,0,0,174,63.2L147.51,78.66a1.13,1.13,0,0,0,1.14,1.94Z" fill="#ff9f9f"></path><path d="M148.65,86.16l26.53-15.47A1.13,1.13,0,0,0,174,68.75L147.51,84.21a1.13,1.13,0,0,0,1.14,1.94Z" fill="#fff"></path><ellipse cx="190.07" cy="54.26" rx="13.03" ry="8.12" transform="translate(76.2 215.82) rotate(-70.76)" fill="#fff"></ellipse><path d="M190.07,54.26V40.07s7.51-2.54,9.73,8.15Z" fill="#053855"></path><path d="M190.07,54.26l7,6.55s3.24-2.53,2.76-12.59Z" fill="#ff9f9f"></path><path d="M196.68,72.14v34a1.5,1.5,0,0,0,3,0v-34a1.5,1.5,0,0,0-3,0Z" fill="#ffeed9"></path><path d="M190.63,82.93v26.85a1.5,1.5,0,0,0,3,0V82.93a1.5,1.5,0,0,0-3,0Z" fill="#ffeed9"></path><path d="M183.94,96.56v17a1.5,1.5,0,0,0,3,0v-17a1.5,1.5,0,0,0-3,0Z" fill="#ffeed9"></path><path d="M100.33,158.42c-.59-2.23,0-45.35,14.48-48.63S127,148.3,134,133.3s-4.41-29.72,8.78-30.77,8.38,30,15.81,22,4-27.23,12.69-27.22,6.57,18.6,6.57,18.6" fill="none" stroke="#ffeed9" stroke-miterlimit="10"></path><path d="M167.32,98.29a58.6,58.6,0,0,0,3.85-6.12c.48-1.31-2-3-4.29-3.14s-2.54,2.46-2.54,2.46a1.28,1.28,0,0,0-1.51.68c-.56,1,.84,4.06,1,4.15l-2.67,3.27,4.45,2.18Z" fill="#ef986c"></path><path d="M137.62,202.32c0-1.9-.09-3.81-.11-5.71l8.37,1.64s-.42,3.24.5,4.4,7.89,4.57,8.72,5.65,1.08,3.11-3.82,2.92-8.81-3.59-9.89-3.84-3.3-.55-4-1.05C137.44,205,137.62,203.65,137.62,202.32Z" fill="#2a343d"></path><path d="M123.38,204.73c0-1.9-.09-3.81-.11-5.71l8.37,1.64s-.42,3.24.5,4.4,7.89,4.57,8.72,5.65,1.08,3.11-3.82,2.92-8.81-3.59-9.89-3.84-3.3-.55-4-1.05C123.2,207.41,123.39,206.06,123.38,204.73Z" fill="#2a343d"></path><path d="M127.21,123.08l4.24.77a11.77,11.77,0,0,1,0-1.6c.89-.05,1.78-.13,2.66-.24,2.48-.3,4.52-2.79,6.85-3.71,1,4.81,1.28,15.31,2.45,22.94,1.49,9.66,6,54.49,4.74,58.21,0,0,.05,1.34-7.7,1.77,0,0-1.85,1.06-4.56-2.76l-2.74-47.74,1.26,51.22c-2.34,2.15-5.86,3.15-12.32-.08L118.95,137Z" fill="#35406e"></path><path d="M133.55,120q-1,.11-2,.17c.53-9.1,3.36-29.43,9.42-1.92A25.89,25.89,0,0,1,133.55,120Z" fill="#35406e"></path><path d="M122.48,159.71a7,7,0,0,0-4.4-7.43c-5.25-2.11-5.14,6.88-5.14,6.88l-2.63-1s-1.54-9.5,7.68-8.84,7.79,11.34,7.79,11.34Z" fill="#ce4823"></path><path d="M115.26,146.57l.07-.33a.82.82,0,0,1,0-.33l1.15-8a.6.6,0,0,1,.43-.53,7.09,7.09,0,0,1,.23-1.41,2,2,0,0,1,2.3-.4c.39-.42,1.23-.49,1.34.23s.25,1.72.37,2.59h0l.07-.28a.71.71,0,0,1,.32-.45c.19-.64.34-1.3.5-1.94.23-1,1.72-.56,1.49.41q-.12.49-.24,1c.55-.16,1.23.23,1,.89a25.64,25.64,0,0,0-1.72,7.24c.37,1.51.68,3,.93,4.57.15.95.36,2.24-.85,2.57a.78.78,0,0,1-1-.54q-.35-1.55-.57-3.12-.17.58-.36,1.15a20.67,20.67,0,0,1-.86,2.39c-.2.43-.48.8-1,.79a.94.94,0,0,1-.8-.37.92.92,0,0,1-1.16.53c-.68-.2-.85-.92-.84-1.67C114.11,150.72,114.94,148.22,115.26,146.57Z" fill="#ef986c"></path><path d="M115.51,133.8a123.57,123.57,0,0,1,2.43-15.38c.87-4.05,1.8-10.8,3.3-14.69,1.17-3,4.15-4,7.54-4.58a56.89,56.89,0,0,1,10.37-.86,1,1,0,0,0,.42-.07c.27,0,.54.1.81.17,1,.26,2.06,3.28,2.35,4.15a22.16,22.16,0,0,1,.91,5.18c.41,4.66-.41,9.18-.89,13.79-.2,2,.41,5.21-1.28,6.68-1.41,1.23-3.84,1.79-5.63,2.06a26.15,26.15,0,0,1-9.64-.53l-2,13.46c-3.73,1.45-8.65-.22-8.65-.22A38.5,38.5,0,0,1,115.51,133.8Z" fill="#ce4823"></path><path d="M130.47,166.2a5,5,0,0,0-2.29-4.17c-5.51-3.52-19.14-12.08-20-11.25-1.12,1-3.37,20.44-2.51,21.1.65.49,14.41,7.46,21.16,10.86a2.53,2.53,0,0,0,3.67-2.26Z" fill="#ce4823"></path><path d="M139.57,98.21s1.1,7-5.27,7-6.7-5.7-6.7-5.7A39.78,39.78,0,0,1,139.57,98.21Z" fill="#f2f2f2"></path><path d="M140.38,98.38s9,6,13.4,6.87c3.62.68,8.21-9.85,8.21-9.85l6.23,3.53s-4.81,15.58-12.46,16.86-15.38-5.8-15.38-5.8" fill="#ce4823"></path><path d="M131.08,96.56c.06.18,0,2.24,0,2.24l2.88.59h3l.55-2.17" fill="#db784d"></path><path d="M130.53,97.46s1.8,1.8,3.42,1.94c1.37.12,3-1.62,3.5-2.17a14.25,14.25,0,0,1-.81,5c-.27.46-.53.76-.71.69-.63-.25-1.81-1.93-1.81-1.93s-1.32,2-1.88,1.94-2.4-3.32-2.4-3.32Z" fill="#35406e"></path><path d="M126.55,84.06A2.78,2.78,0,0,1,130,83.2a.54.54,0,0,1,.09-.14c.72-.78,1-1.61,2.16-1.92a5.91,5.91,0,0,1,3.1.11A3.78,3.78,0,0,1,137.63,83a.47.47,0,0,1,.28-.07,4.16,4.16,0,0,1,4,4.25c-.09,1.88-1.57,4-3.51,4.11a6.94,6.94,0,0,1-2.91.38,1.18,1.18,0,0,1-.83-1.89l-.14-.09-.11,0a1,1,0,0,1-1.3.16l-.16-.1a3.36,3.36,0,0,1-.7-.25l-.27.09.09.28a1.11,1.11,0,0,1-.51,1.25,1.73,1.73,0,0,1-.66.15,6,6,0,0,0,2,1.8c1.06.53.46,2-.51,2,.47.35.29,2.51-.26,2.2a11.26,11.26,0,0,1-5.52-7.24C126.2,88.62,125.57,85.29,126.55,84.06Z" fill="#2a343d"></path><path d="M139.22,88.43c.27,0,.28,9.1-3.47,9.71-4.73.76-6.5-4.85-6.5-4.85s-.69-4.16,2.25-5.55S135.84,89,139.22,88.43Z" fill="#ef986c"></path><path d="M139.22,88.43s-3.73.69-5.72,0,.87,5.72-.61,5.72-1.39-3.47-2.51-2.17,1.7,5.32,1.7,5.32-4-2-4.94-5.49,3.5-6.76,7.75-6.42S139.22,88.43,139.22,88.43Z" fill="#2a343d"></path></svg>